<?xml version="1.0" encoding="UTF-8" standalone="no"?>
<!-- Created with Inkscape (http://www.inkscape.org/) -->

<svg
   width="150"
   height="50"
   viewBox="0 0 39.687498 13.229167"
   version="1.1"
   id="svg5"
   inkscape:version="1.1.1 (3bf5ae0d25, 2021-09-20)"
   sodipodi:docname="logo-full.svg"
   xmlns:inkscape="http://www.inkscape.org/namespaces/inkscape"
   xmlns:sodipodi="http://sodipodi.sourceforge.net/DTD/sodipodi-0.dtd"
   xmlns="http://www.w3.org/2000/svg"
   xmlns:svg="http://www.w3.org/2000/svg">
  <sodipodi:namedview
     id="namedview7"
     pagecolor="#ffffff"
     bordercolor="#666666"
     borderopacity="1.0"
     inkscape:pageshadow="2"
     inkscape:pageopacity="0.0"
     inkscape:pagecheckerboard="0"
     inkscape:document-units="px"
     showgrid="false"
     inkscape:zoom="5.6728406"
     inkscape:cx="69.189323"
     inkscape:cy="18.244828"
     inkscape:window-width="1600"
     inkscape:window-height="837"
     inkscape:window-x="-8"
     inkscape:window-y="-8"
     inkscape:window-maximized="1"
     inkscape:current-layer="layer1"
     units="px"
     showguides="true"
     inkscape:guide-bbox="true">
    <inkscape:grid
       type="xygrid"
       id="grid259" />
  </sodipodi:namedview>
  <defs
     id="defs2" />
  <g
     inkscape:label="Vrstva 1"
     inkscape:groupmode="layer"
     id="layer1">
    <rect
       style="fill:#f03e25;fill-opacity:1;fill-rule:evenodd;stroke-width:0.458271"
       id="rect261"
       width="39.6875"
       height="13.229166"
       x="0"
       y="0" />
    <g
       aria-label="má kapela"
       transform="scale(0.9727086,1.0280571)"
       id="text3265"
       style="font-size:7.68256px;line-height:1.25;font-family:'Arial Rounded MT Bold';-inkscape-font-specification:'Arial Rounded MT Bold, Normal';fill:#ffffff;stroke-width:0.0370873">
      <path
         d="m 5.3279852,6.9361324 v 1.3617037 q 0,0.3226075 -0.1462988,0.4839113 -0.1462987,0.1613037 -0.3863787,0.1613037 -0.2325775,0 -0.3788763,-0.1613037 Q 4.2738839,8.6204436 4.2738839,8.2978361 V 6.6660424 q 0,-0.3863788 -0.026259,-0.6002 Q 4.2213664,5.8520211 4.1050777,5.7169761 3.9887889,5.5781799 3.7374552,5.5781799 q -0.5026675,0 -0.6639713,0.345115 -0.1575525,0.345115 -0.1575525,0.99033 v 1.3842112 q 0,0.3188563 -0.1462987,0.4839113 -0.1425475,0.1613037 -0.3788763,0.1613037 -0.2325775,0 -0.3826275,-0.1613037 Q 1.8618302,8.6166924 1.8618302,8.2978361 V 5.3681099 q 0,-0.2888463 0.1312937,-0.4388963 0.135045,-0.15005 0.3526175,-0.15005 0.21007,0 0.3488663,0.1425475 0.1425475,0.1387963 0.1425475,0.3863788 v 0.097533 q 0.2663387,-0.3188563 0.57019,-0.4689063 0.3038512,-0.15005 0.675225,-0.15005 0.3863787,0 0.6639712,0.1538013 0.2775925,0.1538012 0.4576525,0.465155 0.2588363,-0.315105 0.555185,-0.465155 0.2963488,-0.1538013 0.6564688,-0.1538013 0.42014,0 0.7239912,0.165055 0.3038513,0.165055 0.4539013,0.4726575 0.1312937,0.2775925 0.1312937,0.8740413 v 1.9994162 q 0,0.3226075 -0.1462987,0.4839113 -0.1462988,0.1613037 -0.3863788,0.1613037 -0.2325775,0 -0.3826275,-0.1613037 Q 6.6634302,8.6166924 6.6634302,8.2978361 V 6.5760124 q 0,-0.33011 -0.03001,-0.5289263 -0.026259,-0.1988162 -0.15005,-0.3338612 -0.1237913,-0.135045 -0.375125,-0.135045 -0.2025675,0 -0.3863788,0.12004 -0.18006,0.12004 -0.2813437,0.3226075 -0.1125375,0.2588362 -0.1125375,0.915305 z"
         id="path893" />
      <path
         d="m 11.307478,8.3653586 q -0.371374,0.2888463 -0.72024,0.435145 -0.345115,0.1425475 -0.776509,0.1425475 -0.3938813,0 -0.6939813,-0.1538012 Q 8.820399,8.6316974 8.6590953,8.3653586 8.4977915,8.0990199 8.4977915,7.7876661 q 0,-0.42014 0.2663388,-0.7164887 Q 9.030469,6.7748286 9.495624,6.6735449 9.5931565,6.6510374 9.9795352,6.5722611 10.365914,6.4934849 10.639755,6.4297136 10.917348,6.3621911 11.239955,6.2684099 11.221199,5.8632749 11.0749,5.6757124 10.932353,5.4843986 10.478451,5.4843986 q -0.39013,0 -0.5889458,0.1087863 -0.195065,0.1087862 -0.3376125,0.3263587 -0.1387962,0.2175725 -0.1988162,0.2888463 -0.056269,0.067522 -0.2475825,0.067522 -0.1725575,0 -0.3001,-0.1087863 -0.1237912,-0.1125375 -0.1237912,-0.285095 0,-0.27009 0.1913137,-0.525175 0.1913138,-0.255085 0.5964487,-0.42014 0.405135,-0.165055 1.0090858,-0.165055 0.675225,0 1.061604,0.1613038 0.386379,0.1575525 0.543931,0.5026675 0.161304,0.345115 0.161304,0.915305 0,0.36012 -0.0038,0.6114537 0,0.2513338 -0.0038,0.5589363 0,0.2888462 0.09378,0.6039512 0.09753,0.3113538 0.09753,0.4013838 0,0.1575525 -0.15005,0.2888462 -0.146298,0.1275425 -0.333861,0.1275425 -0.157552,0 -0.311354,-0.1462987 -0.153801,-0.15005 -0.326358,-0.4313938 z m -0.06752,-1.4817437 q -0.225075,0.082527 -0.656469,0.1763087 -0.427642,0.09003 -0.592697,0.135045 -0.165055,0.041264 -0.315105,0.1688063 -0.15005,0.1237912 -0.15005,0.3488662 0,0.2325775 0.1763087,0.3976325 0.1763088,0.1613038 0.4614033,0.1613038 0.303852,0 0.558937,-0.1312938 0.258836,-0.135045 0.378876,-0.345115 0.138796,-0.2325775 0.138796,-0.765255 z M 10.62475,3.3086736 h 0.506419 q 0.191314,0 0.191314,0.056269 0,0.03001 -0.21007,0.2438312 -0.21007,0.2138213 -0.423892,0.4088863 -0.213821,0.195065 -0.296348,0.2363287 -0.213822,0.1087863 -0.4576528,0.1087863 -0.1613037,0 -0.1613037,-0.093781 0,-0.063771 0.097532,-0.2213237 l 0.168806,-0.315105 q 0.146299,-0.2738413 0.255085,-0.3488663 0.108786,-0.075025 0.33011,-0.075025 z"
         id="path895" />
      <path
         d="m 17.755877,8.4741449 -0.904052,-1.485495 -0.555185,0.525175 v 0.8140212 q 0,0.2963488 -0.157552,0.4576525 -0.153801,0.1575525 -0.356369,0.1575525 -0.236329,0 -0.371374,-0.1575525 Q 15.2763,8.6279461 15.2763,8.3203436 v -4.366455 q 0,-0.3413637 0.131294,-0.5176725 0.131294,-0.18006 0.375125,-0.18006 0.236329,0 0.375125,0.1613038 0.138796,0.1613037 0.138796,0.4764087 v 2.4833275 l 1.151634,-1.2079025 q 0.213821,-0.225075 0.326359,-0.3076025 0.112537,-0.082527 0.273841,-0.082527 0.191314,0 0.318856,0.1237913 0.127543,0.12004 0.127543,0.3038512 0,0.225075 -0.416389,0.6002 l -0.543931,0.4989163 1.05035,1.65055 q 0.116289,0.1838112 0.165055,0.2813437 0.05252,0.093781 0.05252,0.18006 0,0.2438313 -0.135045,0.3863788 -0.131293,0.1387962 -0.348866,0.1387962 -0.187562,0 -0.288846,-0.1012837 -0.101284,-0.1012838 -0.273841,-0.3676225 z"
         id="path897" />
      <path
         d="m 21.904757,8.3653586 q -0.371373,0.2888463 -0.72024,0.435145 -0.345115,0.1425475 -0.776508,0.1425475 -0.393882,0 -0.693982,-0.1538012 -0.296348,-0.1575525 -0.457652,-0.4238913 -0.161304,-0.2663387 -0.161304,-0.5776925 0,-0.42014 0.266339,-0.7164887 0.266339,-0.2963488 0.731494,-0.3976325 0.09753,-0.022507 0.483911,-0.1012838 0.386379,-0.078776 0.66022,-0.1425475 0.277592,-0.067522 0.6002,-0.1613037 -0.01876,-0.405135 -0.165055,-0.5926975 -0.142548,-0.1913138 -0.596449,-0.1913138 -0.39013,0 -0.588946,0.1087863 -0.195065,0.1087862 -0.337613,0.3263587 -0.138796,0.2175725 -0.198816,0.2888463 -0.05627,0.067522 -0.247582,0.067522 -0.172558,0 -0.3001,-0.1087863 -0.123792,-0.1125375 -0.123792,-0.285095 0,-0.27009 0.191314,-0.525175 0.191314,-0.255085 0.596449,-0.42014 0.405135,-0.165055 1.009086,-0.165055 0.675225,0 1.061604,0.1613038 0.386379,0.1575525 0.543931,0.5026675 0.161304,0.345115 0.161304,0.915305 0,0.36012 -0.0038,0.6114537 0,0.2513338 -0.0038,0.5589363 0,0.2888462 0.09378,0.6039512 0.09753,0.3113538 0.09753,0.4013838 0,0.1575525 -0.15005,0.2888462 -0.146299,0.1275425 -0.333861,0.1275425 -0.157553,0 -0.311354,-0.1462987 -0.153801,-0.15005 -0.326359,-0.4313938 z m -0.06752,-1.4817437 q -0.225075,0.082527 -0.656469,0.1763087 -0.427642,0.09003 -0.592697,0.135045 -0.165055,0.041264 -0.315105,0.1688063 -0.15005,0.1237912 -0.15005,0.3488662 0,0.2325775 0.176308,0.3976325 0.176309,0.1613038 0.461404,0.1613038 0.303851,0 0.558936,-0.1312938 0.258837,-0.135045 0.378877,-0.345115 0.138796,-0.2325775 0.138796,-0.765255 z"
         id="path899" />
      <path
         d="m 24.725699,5.3531049 v 0.1237912 q 0.288846,-0.3563687 0.6002,-0.5214237 0.311354,-0.1688063 0.705235,-0.1688063 0.472658,0 0.87029,0.2438313 0.397633,0.2438312 0.626459,0.7127375 0.232577,0.4689062 0.232577,1.11037 0,0.4726575 -0.135045,0.87029 -0.131293,0.3938812 -0.363871,0.6639712 -0.232577,0.2663388 -0.551434,0.4126375 -0.315105,0.1425475 -0.678976,0.1425475 -0.438896,0 -0.738996,-0.1763087 -0.296349,-0.1763088 -0.566439,-0.5176725 v 1.5380125 q 0,0.6752246 -0.491414,0.6752246 -0.288846,0 -0.382627,-0.176308 -0.09378,-0.172558 -0.09378,-0.5064191 V 5.3606074 q 0,-0.2925975 0.127542,-0.435145 0.127543,-0.1462988 0.348866,-0.1462988 0.217573,0 0.352618,0.15005 0.138796,0.1462988 0.138796,0.4238913 z m 2.006919,1.4892462 q 0,-0.405135 -0.123791,-0.6939812 Q 26.485035,5.8557724 26.263712,5.7019711 26.046139,5.5444186 25.7798,5.5444186 q -0.423891,0 -0.716488,0.3338613 -0.288847,0.3338612 -0.288847,0.9828275 0,0.6114537 0.288847,0.9528175 0.288846,0.3376125 0.716488,0.3376125 0.255085,0 0.472658,-0.1462988 0.217572,-0.15005 0.348866,-0.4463987 0.131294,-0.2963488 0.131294,-0.7164888 z"
         id="path901" />
      <path
         d="m 31.440436,7.1124411 h -2.003167 q 0.0038,0.3488663 0.138796,0.615205 0.138796,0.2663388 0.363871,0.4013838 0.228826,0.135045 0.502668,0.135045 0.183811,0 0.333861,-0.041264 0.153801,-0.045015 0.296349,-0.135045 0.142547,-0.093781 0.262587,-0.1988162 0.12004,-0.105035 0.311354,-0.285095 0.07878,-0.067522 0.225075,-0.067522 0.157552,0 0.255085,0.086279 0.09753,0.086279 0.09753,0.2438313 0,0.1387962 -0.108786,0.3263587 -0.108786,0.1838113 -0.33011,0.3563688 -0.217572,0.1688062 -0.551434,0.2813437 -0.33011,0.1125375 -0.761503,0.1125375 -0.986579,0 -1.534262,-0.5626875 -0.547682,-0.5626875 -0.547682,-1.5267587 0,-0.4539013 0.135045,-0.84028 0.135045,-0.39013 0.393881,-0.6677225 0.258836,-0.2775925 0.637713,-0.4238913 0.378876,-0.15005 0.84028,-0.15005 0.6002,0 1.027842,0.255085 0.431394,0.2513338 0.645215,0.6527175 0.213821,0.4013838 0.213821,0.8177725 0,0.3863788 -0.221323,0.5026675 -0.221324,0.1125375 -0.622708,0.1125375 z M 29.437269,6.5309974 h 1.856868 q -0.03751,-0.525175 -0.285095,-0.7840113 -0.243831,-0.2625875 -0.645215,-0.2625875 -0.382627,0 -0.63021,0.2663388 -0.243831,0.2625875 -0.296348,0.78026 z"
         id="path903" />
      <path
         d="m 33.147255,8.3203436 v -4.44148 q 0,-0.3076025 0.135045,-0.465155 0.138796,-0.1575525 0.371374,-0.1575525 0.232577,0 0.375125,0.1575525 0.142547,0.1538013 0.142547,0.465155 v 4.44148 q 0,0.3113538 -0.146299,0.4689063 -0.142547,0.1538012 -0.371373,0.1538012 -0.225075,0 -0.367623,-0.1613037 -0.138796,-0.1613038 -0.138796,-0.4614038 z"
         id="path905" />
      <path
         d="m 37.817563,8.3653586 q -0.371374,0.2888463 -0.72024,0.435145 -0.345115,0.1425475 -0.776509,0.1425475 -0.393881,0 -0.693981,-0.1538012 Q 35.330484,8.6316974 35.16918,8.3653586 35.007877,8.0990199 35.007877,7.7876661 q 0,-0.42014 0.266338,-0.7164887 0.266339,-0.2963488 0.731494,-0.3976325 0.09753,-0.022507 0.483911,-0.1012838 0.386379,-0.078776 0.66022,-0.1425475 0.277593,-0.067522 0.6002,-0.1613037 -0.01876,-0.405135 -0.165055,-0.5926975 -0.142547,-0.1913138 -0.596448,-0.1913138 -0.39013,0 -0.588947,0.1087863 -0.195065,0.1087862 -0.337612,0.3263587 -0.138796,0.2175725 -0.198816,0.2888463 -0.05627,0.067522 -0.247583,0.067522 -0.172557,0 -0.3001,-0.1087863 -0.123791,-0.1125375 -0.123791,-0.285095 0,-0.27009 0.191314,-0.525175 0.191313,-0.255085 0.596448,-0.42014 0.405135,-0.165055 1.009087,-0.165055 0.675225,0 1.061603,0.1613038 0.386379,0.1575525 0.543932,0.5026675 0.161303,0.345115 0.161303,0.915305 0,0.36012 -0.0038,0.6114537 0,0.2513338 -0.0038,0.5589363 0,0.2888462 0.09378,0.6039512 0.09753,0.3113538 0.09753,0.4013838 0,0.1575525 -0.15005,0.2888462 -0.146299,0.1275425 -0.333862,0.1275425 -0.157552,0 -0.311353,-0.1462987 -0.153802,-0.15005 -0.326359,-0.4313938 z M 37.75004,6.8836149 q -0.225075,0.082527 -0.656468,0.1763087 -0.427643,0.09003 -0.592698,0.135045 -0.165055,0.041264 -0.315105,0.1688063 -0.15005,0.1237912 -0.15005,0.3488662 0,0.2325775 0.176309,0.3976325 0.176309,0.1613038 0.461404,0.1613038 0.303851,0 0.558936,-0.1312938 0.258836,-0.135045 0.378876,-0.345115 0.138796,-0.2325775 0.138796,-0.765255 z"
         id="path907" />
    </g>
  </g>
</svg>
