<?xml version="1.0" encoding="UTF-8" standalone="no"?>
<!-- Created with Inkscape (http://www.inkscape.org/) -->

<svg
   width="50"
   height="50"
   viewBox="0 0 13.229166 13.229167"
   version="1.1"
   id="svg5"
   inkscape:version="1.1.1 (3bf5ae0d25, 2021-09-20)"
   sodipodi:docname="logo.svg"
   xmlns:inkscape="http://www.inkscape.org/namespaces/inkscape"
   xmlns:sodipodi="http://sodipodi.sourceforge.net/DTD/sodipodi-0.dtd"
   xmlns="http://www.w3.org/2000/svg"
   xmlns:svg="http://www.w3.org/2000/svg">
  <sodipodi:namedview
     id="namedview7"
     pagecolor="#ffffff"
     bordercolor="#666666"
     borderopacity="1.0"
     inkscape:pageshadow="2"
     inkscape:pageopacity="0.0"
     inkscape:pagecheckerboard="0"
     inkscape:document-units="px"
     showgrid="true"
     inkscape:zoom="4.6466891"
     inkscape:cx="23.134752"
     inkscape:cy="39.705691"
     inkscape:window-width="1600"
     inkscape:window-height="837"
     inkscape:window-x="-8"
     inkscape:window-y="-8"
     inkscape:window-maximized="1"
     inkscape:current-layer="text3083"
     units="px">
    <inkscape:grid
       type="xygrid"
       id="grid259" />
  </sodipodi:namedview>
  <defs
     id="defs2" />
  <g
     inkscape:label="Vrstva 1"
     inkscape:groupmode="layer"
     id="layer1">
    <rect
       style="fill:#f03e25;fill-rule:evenodd;stroke-width:0.264583;fill-opacity:1"
       id="rect261"
       width="13.229166"
       height="13.229166"
       x="0"
       y="0" />
    <g
       aria-label="mk"
       id="text3083"
       style="font-size:7.72391px;line-height:1.25;font-family:'Arial Rounded MT Bold';-inkscape-font-specification:'Arial Rounded MT Bold, Normal';fill:#ffffff;stroke-width:0.193098">
      <path
         d="m 4.9463861,7.2155606 v 1.3690328 q 0,0.3243439 -0.1470862,0.4865158 -0.1470862,0.162172 -0.3884583,0.162172 -0.2338293,0 -0.3809155,-0.162172 Q 3.8866113,8.9089373 3.8866113,8.5845934 V 6.9440169 q 0,-0.3884584 -0.0264,-0.6034305 Q 3.8338112,6.1256143 3.7168965,5.9898425 3.5999819,5.8502992 3.3472954,5.8502992 q -0.505373,0 -0.667545,0.3469725 -0.1584005,0.3469725 -0.1584005,0.9956602 v 1.3916615 q 0,0.3205725 -0.1470861,0.4865158 -0.1433148,0.162172 -0.3809155,0.162172 -0.2338293,0 -0.3846869,-0.162172 Q 1.4615752,8.9051659 1.4615752,8.5845934 V 5.6390985 q 0,-0.2904009 0.1320004,-0.4412585 0.1357719,-0.1508576 0.3545154,-0.1508576 0.2112007,0 0.350744,0.1433147 0.1433147,0.1395433 0.1433147,0.3884584 v 0.098057 Q 2.709922,5.3562405 3.0154086,5.2053829 3.3208953,5.0545253 3.6942679,5.0545253 q 0.3884583,0 0.6675449,0.154629 0.2790866,0.1546291 0.4601158,0.4676586 0.2602293,-0.316801 0.5581731,-0.4676586 0.2979438,-0.154629 0.6600021,-0.154629 0.4224013,0 0.727888,0.1659433 0.3054866,0.1659434 0.4563443,0.4752015 0.1320004,0.2790866 0.1320004,0.8787456 v 2.0101777 q 0,0.3243439 -0.1470862,0.4865158 -0.1470862,0.162172 -0.3884584,0.162172 -0.2338293,0 -0.3846869,-0.162172 Q 6.2890189,8.9051659 6.2890189,8.5845934 V 6.8535023 q 0,-0.3318867 -0.030172,-0.5317731 Q 6.2324472,6.1218429 6.1079897,5.986071 5.9835322,5.8502992 5.7308457,5.8502992 q -0.2036578,0 -0.3884584,0.1206861 Q 5.1613582,6.0916714 5.0595293,6.2953291 4.9463861,6.5555585 4.9463861,7.2155606 Z"
         id="path3655" />
      <path
         d="M 10.920348,8.7618511 10.01143,7.2683608 9.4532573,7.7963624 V 8.614765 q 0,0.2979437 -0.1584005,0.4601157 -0.1546291,0.1584005 -0.3582868,0.1584005 -0.2376008,0 -0.3733726,-0.1584005 Q 8.4274255,8.9164802 8.4274255,8.6072221 V 4.2172655 q 0,-0.3432011 0.1320004,-0.5204588 0.1320004,-0.1810291 0.3771441,-0.1810291 0.2376007,0 0.377144,0.1621719 0.1395433,0.162172 0.1395433,0.478973 V 6.653616 L 10.611089,5.4392122 q 0.214973,-0.2262864 0.328116,-0.3092581 0.113143,-0.082972 0.275315,-0.082972 0.192343,0 0.320572,0.1244575 0.128229,0.1206861 0.128229,0.3054867 0,0.2262864 -0.41863,0.6034304 l -0.546858,0.5016016 1.056003,1.6594338 q 0.116915,0.1848005 0.165943,0.282858 0.0528,0.094286 0.0528,0.1810291 0,0.2451437 -0.135771,0.3884584 -0.132001,0.1395433 -0.350744,0.1395433 -0.188572,0 -0.290401,-0.1018289 -0.101829,-0.1018289 -0.275315,-0.3696012 z"
         id="path3657" />
    </g>
  </g>
</svg>
